<svg width="128" height="41" viewBox="0 0 128 41" fill="none" xmlns="http://www.w3.org/2000/svg">
<path d="M17.272 31.8037C17.868 28.3075 20.5839 26.0899 24.6998 26.0899H35.3957C39.3876 26.0899 40.2356 23.5052 40.2356 23.5052C39.6396 27.0014 38.0156 29.219 33.8997 29.219H22.9279C18.388 29.219 17.272 31.8037 17.272 31.8037Z" fill="#DF2325"/>
<path d="M35.2113 29.8858C34.3033 31.2314 33.2513 31.3498 31.2553 31.3498C29.2593 31.3498 26.9154 31.3932 23.6714 31.3498C20.1795 31.3024 17.4835 32.8571 17.2635 36.2389C18.1715 34.8933 19.3515 34.6486 21.3475 34.6486C23.3434 34.6486 24.5434 34.6052 27.7874 34.6486C31.2753 34.6999 34.0033 33.1807 35.2113 29.8858Z" fill="#EE4523"/>
<path d="M17.2714 39.0446C17.2714 37.699 19.1393 36.9769 21.3713 36.9769C23.6033 36.9769 27.9232 37.2689 29.7592 35.9904C29.2592 37.4662 24.6992 40.8479 20.1433 40.8479C18.0793 40.8479 17.2714 39.8653 17.2714 39.0446Z" fill="#FE5F3E"/>
<path d="M9.1676 17.9375C12.7115 18.5255 14.9595 21.2048 14.9595 25.2652V35.8168C14.9595 39.7549 17.5795 40.5914 17.5795 40.5914C14.0355 40.0035 11.7876 38.4014 11.7876 34.341V23.5171C11.7876 19.0345 9.1676 17.9375 9.1676 17.9375Z" fill="#172C4F"/>
<path d="M11.1105 35.631C9.74657 34.7352 9.62657 33.6974 9.62657 31.7284C9.62657 29.7593 9.58257 27.447 9.62657 24.2468C9.67457 20.8019 8.0986 18.1423 4.67065 17.9253C6.03463 18.821 6.28263 19.9851 6.28263 21.9542C6.28263 23.9232 6.32663 25.107 6.28263 28.3072C6.23463 31.752 7.7706 34.4393 11.1105 35.631Z" fill="#264A74"/>
<path d="M1.83197 17.9383C3.19595 17.9383 3.92793 19.7811 3.92793 21.9829C3.92793 24.1809 3.63194 28.4465 4.92792 30.2577C3.42794 29.7644 0 25.266 0 20.7676C0 18.7314 0.999984 17.9383 1.83197 17.9383Z" fill="#345A87"/>
<path d="M23.2281 9.94244C22.6321 13.4386 19.9162 15.6562 15.8002 15.6562H5.10042C1.10848 15.6562 0.260498 18.2409 0.260498 18.2409C0.856488 14.7447 2.48046 12.5271 6.59639 12.5271H17.5682C22.1121 12.5271 23.2281 9.94244 23.2281 9.94244Z" fill="#DF2325"/>
<path d="M5.28821 11.8602C6.19619 10.5147 7.24818 10.3963 9.24414 10.3963C11.2401 10.3963 13.5841 10.3529 16.828 10.3963C20.32 10.4436 23.0159 8.88892 23.2359 5.5072C22.3279 6.85279 21.1479 7.09744 19.152 7.09744C17.156 7.09744 15.956 7.14084 12.7121 7.09744C9.22414 7.04614 6.49619 8.56535 5.28821 11.8602Z" fill="#EE4523"/>
<path d="M23.2292 2.70163C23.2292 4.04721 21.3613 4.76933 19.1293 4.76933C16.8974 4.76933 12.5774 4.47733 10.7415 5.75583C11.2414 4.28003 15.8014 0.898315 20.3573 0.898315C22.4213 0.898315 23.2292 1.88086 23.2292 2.70163Z" fill="#FE5F3E"/>
<path d="M31.3309 23.8076C27.787 23.2197 25.539 20.5403 25.539 16.4799V5.92834C25.539 1.99024 22.9191 1.15369 22.9191 1.15369C26.463 1.74164 28.711 3.34371 28.711 7.40414V18.228C28.711 22.7106 31.3309 23.8076 31.3309 23.8076Z" fill="#172C4F"/>
<path d="M29.387 6.11481C30.7509 7.01055 30.8709 8.04834 30.8709 10.0174C30.8709 11.9864 30.9149 14.2988 30.8709 17.499C30.8229 20.9438 32.3989 23.6034 35.8269 23.8205C34.4629 22.9247 34.2149 21.7607 34.2149 19.7916C34.2149 17.8226 34.1709 16.6388 34.2149 13.4386C34.2629 9.99372 32.7269 7.3065 29.387 6.11481Z" fill="#264A74"/>
<path d="M38.6664 23.8087C37.3024 23.8087 36.5704 21.9659 36.5704 19.7641C36.5704 17.5661 36.8664 13.3005 35.5704 11.4893C37.0664 11.9826 40.4944 16.481 40.4944 20.9755C40.4984 23.0156 39.4984 23.8087 38.6664 23.8087Z" fill="#345A87"/>
<path d="M56.9155 5.18774V23.2328H64.1034V27.4116H51.4276V5.18774H56.9155Z" fill="#172C4F"/>
<path d="M80.536 9.52439H72.2241V14.0189H79.572V18.1977H72.2241V23.0749H80.536V27.4116H66.7362V5.18774H80.536V9.52439Z" fill="#172C4F"/>
<path d="M98.1239 23.4853H89.716L88.3681 27.4116H82.6241L90.776 5.18774H97.1319L105.284 27.4116H99.4759L98.1239 23.4853ZM93.92 11.1699L91.16 19.3065H96.7119L93.92 11.1699Z" fill="#172C4F"/>
<path d="M127.999 16.2997C127.999 22.8855 123.38 27.4116 116.192 27.4116H107.752V5.18774H116.192C123.38 5.18774 127.999 9.68223 127.999 16.2997ZM115.836 22.7237C119.976 22.7237 122.416 20.3798 122.416 16.2957C122.416 12.2116 119.976 9.80455 115.836 9.80455H113.236V22.7198H115.836V22.7237Z" fill="#172C4F"/>
<path d="M77.7882 35.3972H75.4882L75.0922 36.506H74.1522L76.1202 31.0803H77.1642L79.1321 36.506H78.1842L77.7882 35.3972ZM76.6402 32.1536L75.7402 34.6711H77.5362L76.6402 32.1536Z" fill="#172C4F"/>
<path d="M86.8605 33.5176C86.8605 35.1867 85.7045 36.2088 83.9445 36.2088H82.1486V30.7909H83.9445C85.7045 30.787 86.8605 31.8405 86.8605 33.5176ZM83.9445 35.4827C85.2405 35.4827 85.9365 34.7487 85.9365 33.5176C85.9365 32.2785 85.2405 31.513 83.9445 31.513H83.0525V35.4827H83.9445Z" fill="#172C4F"/>
<path d="M93.4767 31.0841H94.4247L92.3607 36.5019H91.3167L89.2448 31.0841H90.2087L91.8367 35.5904L93.4767 31.0841Z" fill="#172C4F"/>
<path d="M97.3723 31.0841H98.2718V36.5019H97.3723V31.0841Z" fill="#172C4F"/>
<path d="M103.536 36.5591C102.436 36.5591 101.592 35.9672 101.592 35.0084H102.556C102.596 35.4543 102.912 35.8133 103.536 35.8133C104.168 35.8133 104.524 35.4779 104.524 35.0162C104.524 33.7062 101.608 34.5546 101.608 32.5579C101.608 31.6069 102.376 31.015 103.496 31.015C104.548 31.015 105.292 31.5596 105.368 32.4908H104.372C104.34 32.1238 104.016 31.7884 103.448 31.7726C102.928 31.7569 102.524 32.0055 102.524 32.5303C102.524 33.7535 105.432 32.992 105.432 34.9728C105.432 35.7818 104.76 36.5591 103.536 36.5591Z" fill="#172C4F"/>
<path d="M111.188 36.5587C109.64 36.5587 108.38 35.4143 108.38 33.7807C108.38 32.1589 109.636 31.0106 111.188 31.0106C112.752 31.0106 113.996 32.155 113.996 33.7807C113.996 35.4143 112.756 36.5587 111.188 36.5587ZM111.188 35.7892C112.28 35.7892 113.068 35.0079 113.068 33.7847C113.068 32.5614 112.276 31.7959 111.188 31.7959C110.096 31.7959 109.308 32.5614 109.308 33.7847C109.308 35.0079 110.1 35.7892 111.188 35.7892Z" fill="#172C4F"/>
<path d="M119.096 31.0841C120.4 31.0841 121.04 31.826 121.04 32.7059C121.04 33.3452 120.692 34.0318 119.768 34.2567L121.128 36.5019H120.052L118.788 34.3356H118.1V36.5019H117.2V31.0841H119.096ZM119.096 31.8102H118.1V33.6253H119.096C119.8 33.6253 120.116 33.2426 120.116 32.7059C120.116 32.1614 119.8 31.8102 119.096 31.8102Z" fill="#172C4F"/>
<path d="M126.104 36.5591C125.004 36.5591 124.16 35.9672 124.16 35.0084H125.124C125.164 35.4543 125.48 35.8133 126.104 35.8133C126.736 35.8133 127.092 35.4779 127.092 35.0162C127.092 33.7062 124.176 34.5546 124.176 32.5579C124.176 31.6069 124.944 31.015 126.064 31.015C127.116 31.015 127.86 31.5596 127.936 32.4908H126.94C126.908 32.1238 126.584 31.7884 126.016 31.7726C125.496 31.7569 125.092 32.0055 125.092 32.5303C125.092 33.7535 128 32.992 128 34.9728C128 35.7818 127.328 36.5591 126.104 36.5591Z" fill="#172C4F"/>
</svg>
