<svg width="184" height="215" viewBox="0 0 184 215" fill="none" xmlns="http://www.w3.org/2000/svg">
<g clip-path="url(#clip0_1_398)">
<g filter="url(#filter0_i_1_398)">
<path fill-rule="evenodd" clip-rule="evenodd" d="M526.073 -5.30188C544.523 -83.5491 463.618 -55.8286 445.519 -96.7568C423.532 -146.474 501.288 -399.181 430.408 -419.22C305.92 -430.206 292.154 -263.137 237.476 -249.604C184.468 -236.484 97.9989 -209.866 55.5461 -175.504C14.9109 -142.615 -35.0758 -51.6225 39.3325 8.21735C96.2011 51.6077 126.949 31.8503 147.412 69.4972C169.08 109.36 178.261 158.217 216.216 183.059C257.348 209.982 311.762 224.009 358.009 207.341C403.021 191.118 417.908 137.218 447.583 99.6716C475.353 64.5345 522.387 39.3386 526.073 -5.30188Z" fill="#162C4E"/>
</g>
</g>
<defs>
<filter id="filter0_i_1_398" x="1.04919" y="-419.739" width="527.741" height="638.275" filterUnits="userSpaceOnUse" color-interpolation-filters="sRGB">
<feFlood flood-opacity="0" result="BackgroundImageFix"/>
<feBlend mode="normal" in="SourceGraphic" in2="BackgroundImageFix" result="shape"/>
<feColorMatrix in="SourceAlpha" type="matrix" values="0 0 0 0 0 0 0 0 0 0 0 0 0 0 0 0 0 0 127 0" result="hardAlpha"/>
<feOffset dy="4"/>
<feGaussianBlur stdDeviation="15"/>
<feComposite in2="hardAlpha" operator="arithmetic" k2="-1" k3="1"/>
<feColorMatrix type="matrix" values="0 0 0 0 0 0 0 0 0 0 0 0 0 0 0 0 0 0 1 0"/>
<feBlend mode="normal" in2="shape" result="effect1_innerShadow_1_398"/>
</filter>
<clipPath id="clip0_1_398">
<rect width="531" height="637" fill="white" transform="translate(0 -422)"/>
</clipPath>
</defs>
</svg>
